# Made in Blockbench 5.1.4
mtllib spline_block.mtl

o base
v 1.0000000000 0.0000000000 0.0000000000
v 0.0000000000 0.0000000000 0.0000000000
v 0.0000000000 1.0000000000 0.0000000000
v 1.0000000000 1.0000000000 0.0000000000
v 1.0000000000 0.0000000000 1.0000000000
v 1.0000000000 1.0000000000 1.0000000000
v 0.0000000000 0.0000000000 1.0000000000
v 0.0000000000 1.0000000000 1.0000000000
vt 0.25 0.5
vt 0.5 0.5
vt 0.5 0.75
vt 0.25 0.75
vt 0 0.5
vt 0.25 0.5
vt 0.25 0.75
vt 0 0.75
vt 0.25 0.5
vt 0.5 0.5
vt 0.5 0.75
vt 0.25 0.75
vt 0 0.5
vt 0.25 0.5
vt 0.25 0.75
vt 0 0.75
vt 0.25 0.734375
vt 0.25 0.75
vt 0 0.75
vt 0 0.734375
vt 0 0.75
vt 0.25 0.75
vt 0.25 1
vt 0 1
vn 0 0 -1
vn 1 0 0
vn 0 0 1
vn -1 0 0
vn 0 1 0
vn 0 -1 0
usemtl m_57545914-ecec-dabd-d335-0526a4db041a
f 1/1/1 2/2/1 3/3/1 4/4/1
f 5/5/2 1/6/2 4/7/2 6/8/2
f 7/9/3 5/10/3 6/11/3 8/12/3
f 2/13/4 7/14/4 8/15/4 3/16/4
f 8/17/5 6/18/5 4/19/5 3/20/5
f 2/21/6 1/22/6 5/23/6 7/24/6
o base2
v 0.8750000000 1.0000000000 0.0000000000
v 0.1250000000 1.0000000000 0.0000000000
v 0.1250000000 1.1250000000 0.0000000000
v 0.8750000000 1.1250000000 0.0000000000
v 0.8750000000 1.0000000000 1.0000000000
v 0.8750000000 1.1250000000 1.0000000000
v 0.1250000000 1.0000000000 1.0000000000
v 0.1250000000 1.1250000000 1.0000000000
vt 0.28125 0.75
vt 0.46875 0.75
vt 0.46875 0.78125
vt 0.28125 0.78125
vt 0.34375 0.703125
vt 0.34375 0.6875
vt 0.3125 0.6875
vt 0.3125 0.703125
vt 0.28125 0.75
vt 0.46875 0.75
vt 0.46875 0.78125
vt 0.28125 0.78125
vt 0.34375 0.6875
vt 0.34375 0.703125
vt 0.3125 0.703125
vt 0.3125 0.6875
vt 0.28125 0.765625
vt 0.46875 0.765625
vt 0.46875 0.78125
vt 0.28125 0.78125
vt 0.28125 0.765625
vt 0.46875 0.765625
vt 0.46875 0.78125
vt 0.28125 0.78125
vn 0 0 -1
vn 1 0 0
vn 0 0 1
vn -1 0 0
vn 0 1 0
vn 0 -1 0
usemtl m_57545914-ecec-dabd-d335-0526a4db041a
f 9/25/7 10/26/7 11/27/7 12/28/7
f 13/29/8 9/30/8 12/31/8 14/32/8
f 15/33/9 13/34/9 14/35/9 16/36/9
f 10/37/10 15/38/10 16/39/10 11/40/10
f 16/41/11 14/42/11 12/43/11 11/44/11
f 10/45/12 9/46/12 13/47/12 15/48/12
o mount
v 1.1250000000 0.8750000000 -0.1250000000
v 0.6250000000 0.8750000000 -0.1250000000
v 0.6250000000 1.3750000000 -0.1250000000
v 1.1250000000 1.3750000000 -0.1250000000
v 1.1250000000 0.8750000000 0.1250000000
v 1.1250000000 1.3750000000 0.1250000000
v 0.6250000000 0.8750000000 0.1250000000
v 0.6250000000 1.3750000000 0.1250000000
vt 0.3125 0.71875
vt 0.4375 0.71875
vt 0.4375 0.84375
vt 0.3125 0.84375
vt 0.5 0.9375
vt 0.5 1
vt 0.375 1
vt 0.375 0.9375
vt 0.3125 0.71875
vt 0.4375 0.71875
vt 0.4375 0.84375
vt 0.3125 0.84375
vt 0.5 0.9375
vt 0.5 1
vt 0.375 1
vt 0.375 0.9375
vt 0.375 0.9375
vt 0.5 0.9375
vt 0.5 1
vt 0.375 1
vt 0.25 0.9375
vt 0.375 0.9375
vt 0.375 1
vt 0.25 1
vn 0 0 -1
vn 1 0 0
vn 0 0 1
vn -1 0 0
vn 0 1 0
vn 0 -1 0
usemtl m_57545914-ecec-dabd-d335-0526a4db041a
f 17/49/13 18/50/13 19/51/13 20/52/13
f 21/53/14 17/54/14 20/55/14 22/56/14
f 23/57/15 21/58/15 22/59/15 24/60/15
f 18/61/16 23/62/16 24/63/16 19/64/16
f 24/65/17 22/66/17 20/67/17 19/68/17
f 18/69/18 17/70/18 21/71/18 23/72/18
o mount
v 1.1250000000 0.8750000000 0.8750000000
v 0.6250000000 0.8750000000 0.8750000000
v 0.6250000000 1.3750000000 0.8750000000
v 1.1250000000 1.3750000000 0.8750000000
v 1.1250000000 0.8750000000 1.1250000000
v 1.1250000000 1.3750000000 1.1250000000
v 0.6250000000 0.8750000000 1.1250000000
v 0.6250000000 1.3750000000 1.1250000000
vt 0.3125 0.71875
vt 0.4375 0.71875
vt 0.4375 0.84375
vt 0.3125 0.84375
vt 0.5 0.9375
vt 0.5 1
vt 0.375 1
vt 0.375 0.9375
vt 0.3125 0.71875
vt 0.4375 0.71875
vt 0.4375 0.84375
vt 0.3125 0.84375
vt 0.5 0.9375
vt 0.5 1
vt 0.375 1
vt 0.375 0.9375
vt 0.375 0.9375
vt 0.5 0.9375
vt 0.5 1
vt 0.375 1
vt 0.25 0.9375
vt 0.375 0.9375
vt 0.375 1
vt 0.25 1
vn 0 0 -1
vn 1 0 0
vn 0 0 1
vn -1 0 0
vn 0 1 0
vn 0 -1 0
usemtl m_57545914-ecec-dabd-d335-0526a4db041a
f 25/73/19 26/74/19 27/75/19 28/76/19
f 29/77/20 25/78/20 28/79/20 30/80/20
f 31/81/21 29/82/21 30/83/21 32/84/21
f 26/85/22 31/86/22 32/87/22 27/88/22
f 32/89/23 30/90/23 28/91/23 27/92/23
f 26/93/24 25/94/24 29/95/24 31/96/24
o grate_invert
v 0.9558058262 1.0120242597 0.8875000000
v 1.2651650429 0.7026650429 0.8875000000
v 1.0000000000 0.4375000000 0.8875000000
v 0.6906407832 0.7468592168 0.8875000000
v 1.2651650429 0.7026650429 0.1250000000
v 0.9558058262 1.0120242597 0.1250000000
v 0.6906407832 0.7468592168 0.1250000000
v 1.0000000000 0.4375000000 0.1250000000
vt 0.421875 0.9375
vt 0.3125 0.9375
vt 0.3125 0.84375
vt 0.421875 0.84375
vt 0.4375 0.9375
vt 0.328125 0.9375
vt 0.328125 0.84375
vt 0.4375 0.84375
vt 0.625 0.875
vt 1 0.875
vt 1 0.6875
vt 0.625 0.6875
vn 0 0 -1
vn 0 0 1
vn -0.7071067811865474 0.7071067811865477 0
usemtl m_57545914-ecec-dabd-d335-0526a4db041a
f 33/97/25 34/98/25 35/99/25 36/100/25
f 37/101/26 38/102/26 39/103/26 40/104/26
f 34/105/27 37/106/27 40/107/27 35/108/27
o core
v 0.5902283344 0.4374999201 0.1312499735
v 1.1597716678 0.4374999210 0.1312499735
v 1.1597716678 0.4374999210 0.8812499735
v 0.5902283344 0.4374999201 0.8812499735
v 1.5625000005 0.8402282550 0.1312499735
v 1.5625000005 0.8402282550 0.8812499735
v 0.6420044009 0.5624999202 0.8812499735
v 1.1079947009 0.5624999210 0.8812499735
v 1.5624999995 1.4097715883 0.1312499735
v 1.5624999995 1.4097715883 0.8812499735
v 1.4375000004 0.8920052215 0.8812499735
v 1.1597716656 1.8124999210 0.1312499735
v 1.1597716656 1.8124999210 0.8812499735
v 1.4374999996 1.3579955215 0.8812499735
v 0.5902283322 1.8124999201 0.1312499735
v 0.5902283322 1.8124999201 0.8812499735
v 1.1079946991 1.6874999210 0.8812499735
v 0.1874999995 1.4097715862 0.1312499735
v 0.1874999995 1.4097715862 0.8812499735
v 0.6420043991 1.6874999202 0.8812499735
v 0.1875000005 0.8402282528 0.1312499735
v 0.1875000005 0.8402282528 0.8812499735
v 0.3124999996 1.3579946197 0.8812499735
v 0.3125000004 0.8920043197 0.8812499735
v 0.8750000000 1.1249999206 0.1312499735
v 1.1079956009 0.5624999210 0.1312499735
v 0.6420053009 0.5624999202 0.1312499735
v 0.3125000004 0.8920052197 0.1312499735
v 0.3124999996 1.3579955197 0.1312499735
v 0.6420052991 1.6874999202 0.1312499735
v 1.1079955991 1.6874999210 0.1312499735
v 1.4374999996 1.3579955215 0.1312499735
v 1.4375000004 0.8920052215 0.1312499735
v 1.5624999995 1.4097715883 0.6312499735
v 1.1597716656 1.8124999210 0.6312499735
v 1.5624999995 1.4097715883 0.3812499735
v 1.1597716656 1.8124999210 0.3812499735
v 0.5902283322 1.8124999201 0.6312499735
v 0.5902283322 1.8124999201 0.3812499735
v 0.1874999995 1.4097715862 0.6312499735
v 0.1874999995 1.4097715862 0.3812499735
v 0.1875000005 0.8402282528 0.6312499735
v 0.1875000005 0.8402282528 0.3812499735
v 0.5902283344 0.4374999201 0.6312499735
v 0.5902283344 0.4374999201 0.3812499735
v 1.1597716678 0.4374999210 0.6312499735
v 1.1597716678 0.4374999210 0.3812499735
v 1.5625000005 0.8402282550 0.6312499735
v 1.5625000005 0.8402282550 0.3812499735
v 0.8750000000 1.1249999206 0.8812499735
v 1.3077424707 1.3042476303 0.5062499735
v 1.0542477084 1.5577423919 0.5062499735
v 0.6957522902 1.5577423913 0.5062499735
v 0.4422575287 1.3042476290 0.5062499735
v 0.4422575293 0.9457522108 0.5062499735
v 0.6957522916 0.6922574493 0.5062499735
v 1.0542477098 0.6922574499 0.5062499735
v 1.3077424713 0.9457522122 0.5062499735
vt 0.125 0.8125
vt 0.125 0.875
vt 0 0.875
vt 0 0.8125
vt 0.1875 0.9730116130412835
vt 0.15625 0.984375
vt 0.15625 0.859375
vt 0.1875 0.8707383869587165
vt 0.125 0.8125
vt 0.125 0.875
vt 0 0.875
vt 0 0.8125
vt 0.1875 0.9730116130412835
vt 0.15625 0.984375
vt 0.15625 0.859375
vt 0.1875 0.8707383869587165
vt 0.125 0.8125
vt 0.125 0.875
vt 0 0.875
vt 0 0.8125
vt 0.1875 0.9730116130412835
vt 0.15625 0.984375
vt 0.15625 0.859375
vt 0.1875 0.8707383869587165
vt 0.1875 0.9730116130412835
vt 0.15625 0.984375
vt 0.15625 0.859375
vt 0.1875 0.8707383869587165
vt 0.125 0.8125
vt 0.125 0.875
vt 0 0.875
vt 0 0.8125
vt 0.1875 0.9730116130412835
vt 0.15625 0.984375
vt 0.15625 0.859375
vt 0.1875 0.8707383869587165
vt 0.125 0.8125
vt 0.125 0.875
vt 0 0.875
vt 0 0.8125
vt 0.1875 0.9730116130412835
vt 0.15625 0.984375
vt 0.15625 0.859375
vt 0.1875 0.8707383869587165
vt 0.125 0.8125
vt 0.125 0.875
vt 0 0.875
vt 0 0.8125
vt 0.1875 0.9730116130412835
vt 0.15625 0.984375
vt 0.15625 0.859375
vt 0.1875 0.8707383869587165
vt 0.1875 0.9730116130412835
vt 0.15625 0.984375
vt 0.15625 0.859375
vt 0.1875 0.8707383869587165
vt 0.78125 0.75
vt 0.90625 0.8
vt 0.83125 0.875
vt 0.78125 0.75
vt 0.90625 0.7
vt 0.90625 0.8
vt 0.78125 0.75
vt 0.83125 0.625
vt 0.90625 0.7
vt 0.78125 0.75
vt 0.73125 0.625
vt 0.83125 0.625
vt 0.78125 0.75
vt 0.83125 0.875
vt 0.73125 0.875
vt 0.78125 0.75
vt 0.73125 0.875
vt 0.65625 0.8
vt 0.78125 0.75
vt 0.65625 0.8
vt 0.65625 0.7
vt 0.78125 0.75
vt 0.65625 0.7
vt 0.73125 0.625
vt 0.78125 0.75
vt 0.73125 0.625
vt 0.83125 0.625
vt 0.78125 0.75
vt 0.65625 0.7
vt 0.73125 0.625
vt 0.78125 0.75
vt 0.83125 0.625
vt 0.90625 0.7
vt 0.78125 0.75
vt 0.90625 0.7
vt 0.90625 0.8
vt 0.78125 0.75
vt 0.65625 0.8
vt 0.65625 0.7
vt 0.1875 0.8707383869587165
vt 0.15625 0.859375
vt 0.15625 0.984375
vt 0.1875 0.9730116130412835
vt 0.78125 0.75
vt 0.90625 0.8
vt 0.83125 0.875
vt 0.1875 0.8707383869587165
vt 0.15625 0.859375
vt 0.15625 0.984375
vt 0.1875 0.9730116130412835
vt 0.1875 0.8707383869587165
vt 0.15625 0.859375
vt 0.15625 0.984375
vt 0.1875 0.9730116130412835
vt 0.78125 0.75
vt 0.73125 0.875
vt 0.65625 0.8
vt 0.1875 0.8707383869587165
vt 0.15625 0.859375
vt 0.15625 0.984375
vt 0.1875 0.9730116130412835
vt 0.1875 0.8707383869587165
vt 0.15625 0.859375
vt 0.15625 0.984375
vt 0.1875 0.9730116130412835
vt 0.1875 0.8707383869587165
vt 0.15625 0.859375
vt 0.15625 0.984375
vt 0.1875 0.9730116130412835
vt 0.1875 0.8707383869587165
vt 0.15625 0.859375
vt 0.15625 0.984375
vt 0.1875 0.9730116130412835
vt 0.1875 0.8707383869587165
vt 0.15625 0.859375
vt 0.15625 0.984375
vt 0.1875 0.9730116130412835
vt 0.78125 0.75
vt 0.83125 0.875
vt 0.73125 0.875
vt 0.125 0.8125
vt 0.125 0.875
vt 0 0.875
vt 0 0.8125
vt 0 1
vt 0 0.9375
vt 0.125 0.9375
vt 0.125 1
vt 0 1
vt 0 0.9375
vt 0.125 0.9375
vt 0.125 1
vt 0 1
vt 0 0.9375
vt 0.125 0.9375
vt 0.125 1
vt 0 1
vt 0 0.9375
vt 0.125 0.9375
vt 0.125 1
vt 0 1
vt 0 0.9375
vt 0.125 0.9375
vt 0.125 1
vt 0 1
vt 0 0.9375
vt 0.125 0.9375
vt 0.125 1
vt 0 1
vt 0 0.9375
vt 0.125 0.9375
vt 0.125 1
vt 0 1
vt 0 0.9375
vt 0.125 0.9375
vt 0.125 1
vt 0.125 0.8125
vt 0.125 0.875
vt 0 0.875
vt 0 0.8125
vt 0.36738376948873946 0.9999999999999971
vt 0 0.9999999999999969
vt 0.01423270884674845 0.9422558924813504
vt 0.3531510606419911 0.9422558924813507
vt 0.05774410751864645 0.6638662305112606
vt 0.05774410751864645 1
vt 0 0.9760821131263651
vt 0 0.6252841173848955
vt 0.367375 0.9999999999999998
vt 0 0.9999999999999998
vt 0.014233084885604366 0.9422562499999998
vt 0.35314191511439563 0.9422562499999998
vt 0.367375 0.9999999999999998
vt 0 0.9999999999999998
vt 0.014233084885604366 0.9422562499999998
vt 0.35314191511439563 0.9422562499999998
vt 0.05774410751864645 0.6326162305112606
vt 0.05774410751864645 1
vt 0 0.9760821131263651
vt 0 0.6252841173848955
vt 0.3673837694887396 0.9999999999999971
vt 0 0.9999999999999969
vt 0.014232708846748453 0.9422558924813504
vt 0.3531510606419912 0.9422558924813507
vt 0.05774374999999998 0.632625
vt 0.05774374999999998 1
vt 0 0.97608125
vt 0 0.62529375
vt 2.220446049250313e-16 1
vt 2.220446049250313e-16 0.632625
vt 0.057743750000000205 0.65654375
vt 0.057743750000000205 0.97608125
vt 0 0.9422558924813531
vt 0.3673837694887393 0.9422558924813532
vt 0.37471588261510436 0.9999999999999997
vt 0.02391788687363494 0.9999999999999996
vt 0 1
vt 1.1102230246251565e-16 0.6326162305112607
vt 0.057744107518646476 0.6565341173848956
vt 0.05774410751864645 0.9760821131263651
vt 0 0.87975625
vt 0.367375 0.87975625
vt 0.35314191511439563 0.9375
vt 0.014233084885604366 0.9375
vt 0 0.94225625
vt 0.367375 0.94225625
vt 0.37470625 1
vt 0.02391874999999999 1
vt 0 1
vt 1.1102230246251565e-16 0.6326162305112607
vt 0.057744107518646476 0.6252841173848956
vt 0.05774410751864645 0.9760821131263651
vt 0 0.9422558924813531
vt 0.3673837694887393 0.9422558924813532
vt 0.37471588261510436 0.9999999999999997
vt 0.02391788687363494 0.9999999999999996
vt 2.220446049250313e-16 1
vt 2.220446049250313e-16 0.632625
vt 0.057743750000000205 0.62529375
vt 0.057743750000000205 0.97608125
vt 0.05774374999999998 0.632625
vt 0.05774374999999998 1
vt 0 0.97608125
vt 0 0.62529375
vn 0.7071067823123455 -0.7071067800607497 3.1401849123680033e-16
vn -2.121127305865695e-24 1.3322676295501878e-15 1
vn 1 1.592118413914642e-9 0
vn -3.572590518704017e-16 1.1842853096019304e-15 1
vn 0.7071067800607501 0.707106782312345 0
vn 8.074396022679943e-17 1.9493214306619806e-16 1
vn -2.4222830473878474e-16 5.847979559924769e-16 1
vn -0.7071067823123448 0.7071067800607503 -6.280369824736013e-16
vn -2.121126786462129e-24 1.3322676295501886e-15 1
vn -1 -1.592118413914641e-9 0
vn -3.572608707430113e-16 1.1842871284745336e-15 1
vn -0.70710678006075 -0.707106782312345 3.1401849223670954e-16
vn 8.074396022679944e-17 1.9493214306619811e-16 1
vn -2.4222830473878464e-16 5.847979559924767e-16 1
vn -7.824831491678461e-17 4.27157542719152e-16 1
vn -1.9097951740800295e-22 2.3825024354051047e-16 1
vn 7.824748855695676e-17 4.2715720124157347e-16 1
vn -6.284820507850873e-25 3.9474596431116675e-16 1
vn 6.284822388817316e-25 -3.9474596431116675e-16 -1
vn -4.087761453312742e-17 -3.778139329540022e-16 -1
vn -3.8044174477067282e-22 -4.765004870810222e-16 -1
vn -7.824825231800407e-17 4.2715739159263335e-16 1
vn 6.284820507850873e-25 -3.9474596431116675e-16 -1
vn 4.0876886037332256e-17 -3.778142350744409e-16 -1
vn -4.0876917535884505e-17 -3.7781415625611166e-16 -1
vn 3.8195903486303024e-22 -4.765004870810211e-16 -1
vn -1.9097951738449083e-22 2.3825024354051042e-16 1
vn -1.614875201181389e-16 -3.8986331964215956e-16 -1
vn 4.087764843820927e-17 -3.7781385387400096e-16 -1
vn 1.614851146721607e-16 -3.8986428561818494e-16 -1
vn -2.3817391131464017e-16 -7.89524753074758e-16 -1
vn 7.824742595912875e-17 4.2715705011676913e-16 1
vn -1.6148553525109963e-16 -3.8986530450919256e-16 -1
vn 1.4140845243080842e-24 -8.881784197001247e-16 -1
vn 1.6148792169501943e-16 -3.898642856181805e-16 -1
vn -2.381726987329062e-16 -7.895235404930195e-16 -1
vn 1.4140848705771304e-24 -8.881784197001252e-16 -1
vn -6.284822388817316e-25 3.9474596431116675e-16 1
vn -1.5921176341860694e-9 1 0
vn 0.7071067800607501 0.707106782312345 -6.280369844734189e-16
vn -1.5921176341860692e-9 1 -8.881784197001254e-16
vn -0.707106782312345 0.7071067800607501 -6.280369824736013e-16
vn -1 -1.5921184139146414e-9 0
vn -0.7071067800607499 -0.7071067823123451 3.1401849223670963e-16
vn 1.5921180240503552e-9 -1 4.440892098500625e-16
vn 0.7071067823123453 -0.7071067800607498 3.140184912368003e-16
vn 1 1.5921184139146416e-9 -7.070426084230883e-25
vn 1.5921180240503552e-9 -1 4.440892098500626e-16
vn 0.3114769693774101 0.31147697036922634 0.897755086021278
vn 0.311476969377409 0.3114769703692252 -0.8977550860212787
vn -7.01319820223459e-10 0.44049489009623455 0.8977551179464845
vn -7.013198202234551e-10 0.44049489009623227 -0.8977551179464857
vn -0.3114769703692263 0.3114769693774106 0.8977550860212777
vn -0.3114769703692257 0.3114769693774101 -0.8977550860212783
vn -0.44049489009623427 -7.013200248484877e-10 0.8977551179464848
vn -0.44049489009623427 -7.013200248484877e-10 -0.8977551179464848
vn -0.3114769693774097 -0.31147697036922606 0.8977550860212783
vn -0.3114769693774106 -0.311476970369227 -0.8977550860212776
vn 7.013196838067697e-10 -0.4404948900962326 0.8977551179464854
vn 7.013196838067737e-10 -0.44049489009623516 -0.8977551179464842
vn 0.3114769703692257 -0.3114769693774091 0.8977550860212786
vn 0.3114769703692265 -0.31147696937740993 -0.8977550860212778
vn 0.44049489009623355 7.013200248484871e-10 0.897755117946485
vn 0.4404948900962336 7.013200248484873e-10 -0.897755117946485
